# xmcd CD database file
#
# Track frame offsets:
#	150
#	19403
#	40304
#	57561
#	78960
#	99363
#	116575
#	138966
#	158679
#	178483
#
# Disc length: 2663 seconds
#
# Revision: 0
# Processed by: cddbd v1.5.2PL0 Copyright (c) Steve Scherf et al.
# Submitted via: cdripper 1,0,39,0213
#
DISCID=830a650a
DTITLE=Theodis Ealey -  Let Me Put The Head In It
DYEAR=2006
DGENRE=Blues
TTITLE0=Theodis Ealey - Let Me Put The Head In It
TTITLE1=Lebrado - I'm Missin' You Babe
TTITLE2=Willie Hill - I'm A Man On A Mission
TTITLE3=Rasheeda - You Gotta Kiss It (Like You Miss It)
TTITLE4=Freddie Hughes - Headed Back To Hurtsville
TTITLE5=Theodis Ealey - This Time I Know
TTITLE6=Theodis Ealey - Don't You Wanna Party
TTITLE7=Freddie Hughes - Wicked City Woman
TTITLE8=Doc Blakey - Think It Over
TTITLE9=Gregory P. Jones - Candy Shop
EXTD=YEAR: 2006
EXTT0=
EXTT1=
EXTT2=
EXTT3=
EXTT4=
EXTT5=
EXTT6=
EXTT7=
EXTT8=
EXTT9=
PLAYORDER=
